<mxfile host="app.diagrams.net" modified="2024-02-01T21:43:11.381Z" agent="Mozilla/5.0 (Windows NT 10.0; Win64; x64) AppleWebKit/537.36 (KHTML, like Gecko) Chrome/120.0.0.0 Safari/537.36 Edg/120.0.0.0" version="23.0.2" etag="9f4QTZxpPOFYxSTC_NDh" type="github">
  <diagram name="Page-1" id="lMyhe8c7Bpy15v3IAV2X">
    <mxGraphModel>
      <root>
        <mxCell id="0" />
        <mxCell id="1" parent="0" />
      </root>
    </mxGraphModel>
  </diagram>
</mxfile>
